HIERARCHY
ROOT Hips
{
  OFFSET 279.157 85.6768 304.565
  CHANNELS 6 Xposition Yposition Zposition Zrotation Xrotation Yrotation
  JOINT LeftUpLeg
  {
    OFFSET 8.64259 1.95398 -2.38835
    CHANNELS 3 Zrotation Xrotation Yrotation
    JOINT LeftLeg
    {
      OFFSET 43.7702 0 0
      CHANNELS 3 Zrotation Xrotation Yrotation
      JOINT LeftFoot
      {
        OFFSET 40.6238 0 0
        CHANNELS 3 Zrotation Xrotation Yrotation
        JOINT LeftToeBase
        {
          OFFSET 12.7242 0 0
          CHANNELS 3 Zrotation Xrotation Yrotation
          End Site
          {
            OFFSET 0 0 0
          }
        }
      }
    }
  }
  JOINT RightUpLeg
  {
    OFFSET -8.2249 1.95398 -2.59336
    CHANNELS 3 Zrotation Xrotation Yrotation
    JOINT RightLeg
    {
      OFFSET 43.5653 0 0
      CHANNELS 3 Zrotation Xrotation Yrotation
      JOINT RightFoot
      {
        OFFSET 40.6238 0 0
        CHANNELS 3 Zrotation Xrotation Yrotation
        JOINT RightToeBase
        {
          OFFSET 12.7242 0 0
          CHANNELS 3 Zrotation Xrotation Yrotation
          End Site
          {
            OFFSET 0 0 0
          }
        }
      }
    }
  }
  JOINT Spine
  {
    OFFSET 0.165834 0.87714 6.61349
    CHANNELS 3 Zrotation Xrotation Yrotation
    JOINT Spine1
    {
      OFFSET 7.38963 1.71661e-005 0
      CHANNELS 3 Zrotation Xrotation Yrotation
      JOINT Spine2
      {
        OFFSET 11.9445 1.14441e-005 0
        CHANNELS 3 Zrotation Xrotation Yrotation
        JOINT Spine3
        {
          OFFSET 14.7254 4.19617e-005 0
          CHANNELS 3 Zrotation Xrotation Yrotation
          JOINT Spine4
          {
            OFFSET 10.9679 0 0
            CHANNELS 3 Zrotation Xrotation Yrotation
            JOINT RightShoulder
            {
              OFFSET 2.46616 -1.6653 3.69651
              CHANNELS 3 Zrotation Xrotation Yrotation
              JOINT RightArm
              {
                OFFSET 13.0012 0 0
                CHANNELS 3 Zrotation Xrotation Yrotation
                JOINT RightForeArm
                {
                  OFFSET 28.7848 1.52588e-005 0
                  CHANNELS 3 Zrotation Xrotation Yrotation
                  JOINT RightHand
                  {
                    OFFSET 26.5688 1.52588e-005 0
                    CHANNELS 3 Zrotation Xrotation Yrotation
                    End Site
                    {
                      OFFSET 0 0 0
                    }
                  }
                }
              }
            }
            JOINT LeftShoulder
            {
              OFFSET 2.38034 -1.29275 -3.7523
              CHANNELS 3 Zrotation Xrotation Yrotation
              JOINT LeftArm
              {
                OFFSET 16.3182 6.10351e-005 0
                CHANNELS 3 Zrotation Xrotation Yrotation
                JOINT LeftForeArm
                {
                  OFFSET 27.0901 0 0
                  CHANNELS 3 Zrotation Xrotation Yrotation
                  JOINT LeftHand
                  {
                    OFFSET 24.5451 1.52588e-005 0
                    CHANNELS 3 Zrotation Xrotation Yrotation
                    End Site
                    {
                      OFFSET 0 0 0
                    }
                  }
                }
              }
            }
            JOINT Neck
            {
              OFFSET 5.0226 -0.0266342 0
              CHANNELS 3 Zrotation Xrotation Yrotation
              JOINT Head
              {
                OFFSET 6.69364 2.86102e-005 0
                CHANNELS 3 Zrotation Xrotation Yrotation
                End Site
                {
                  OFFSET 0 0 0
                }
              }
            }
          }
        }
      }
    }
  }
}
MOTION
Frames:	16
Frame Time:	0.0416667
28.0262 102.811 -315.077 162.741 -82.3773 162.163 -175.056 -3.51446 89.6864 -11.3446 16.7602 1.27661 63.3341 3.02029 3.72699 27.5417 -0.894844 0.97147 173.726 -4.22033 88.8273 -12.3152 -8.79199 -0.75449 63.7371 -1.9533 0.568479 26.9154 0.480689 1.09014 0.0459155 8.11986 -90.004 10.6342 0.0896477 -0.0160922 -1.03674 0.0888593 -0.0200218 -23.5719 0.0903452 0.0115967 -3.55928 0.0903402 0.0115936 86.1964 -33.7687 -112.47 37.4189 -12.2786 -9.46883 -4.84344 -27.194 -27.4103 -20.1267 -1.68433 -2.50344 -91.3291 -55.076 77.8887 -21.5967 -6.04023 -18.9911 137.032 57.3975 -133.797 18.3352 -4.57686 -28.5731 6.96565 -1.73611 -5.36806 -5.84335 -0.724531 2.73938 
27.9659 102.819 -315.032 160.528 -82.5512 160.204 -174.783 -2.98038 90.0873 -11.669 16.0145 1.0637 63.7004 3.02737 2.85813 27.6225 -0.7672 0.62577 173.937 -4.30381 89.1983 -11.7986 -8.62708 -0.715944 63.8659 -2.20681 -0.244319 25.2643 0.669338 3.29932 0.029767 8.08598 -90.0398 10.702 0.0409663 -0.0827643 -0.968976 0.0372844 -0.0844976 -23.5041 0.063959 -0.0666208 -3.49148 0.0639412 -0.066639 85.8779 -33.5599 -113.148 37.5775 -12.0541 -8.94901 -4.90915 -26.9849 -27.5033 -19.7209 -1.8151 -1.27938 -91.8938 -55.2581 77.1333 -22.5142 -7.67265 -17.649 136.465 55.5 -132.189 17.4518 -4.48183 -29.1264 6.69808 -1.82615 -5.51575 -5.7664 -0.800118 2.90144 
28.0357 102.84 -315.052 164.594 -82.4124 163.951 -174.88 -3.5087 89.6718 -11.2002 14.8403 0.971463 63.5736 2.90082 2.52099 27.3507 -0.882113 0.493527 173.628 -4.35129 88.7314 -12.1848 -9.21057 -0.755093 64.4399 -2.59701 -0.766048 23.5678 0.864912 5.24583 0.0615343 8.12751 -90.0084 10.6188 0.118717 -0.0275258 -1.05211 0.117391 -0.032729 -23.5873 0.121504 0.00942405 -3.57465 0.121497 0.00941723 85.8585 -33.4258 -113.244 37.4655 -12.2281 -9.08279 -4.29118 -26.8783 -26.9132 -20.3261 -1.65045 -2.66269 -91.9175 -55.4679 77.1466 -20.8853 -5.63404 -18.9911 135.264 59.7286 -132.678 17.9793 -4.32723 -27.6585 6.52585 -1.91801 -5.59215 -5.47896 -0.879346 2.99412 
27.964 102.842 -315.006 164.311 -82.9514 164.089 -174.675 -2.78047 90.1943 -11.6137 14.9188 0.920946 63.8051 2.96402 2.61931 27.2013 -0.855562 0.0565933 174.069 -4.17606 89.3473 -11.595 -8.77969 -0.784733 64.0957 -2.46371 -0.649953 23.8043 0.749367 5.49154 0.0659242 8.08136 -90.0523 10.7112 0.107238 -0.113662 -0.959751 0.102123 -0.118276 -23.4949 0.136431 -0.0761793 -3.48227 0.136434 -0.0761809 85.9695 -33.3029 -113.094 37.5553 -12.3906 -9.21247 -4.02034 -27.0383 -26.5616 -20.3357 -1.67273 -2.52565 -91.7977 -55.4228 77.3049 -20.8798 -5.42046 -17.4333 129.262 59.9324 -126.845 16.2708 -3.90995 -27.334 6.75647 -1.88515 -5.50397 -5.73309 -0.847733 2.63431 
27.9851 102.83 -315.015 164.909 -83.2121 164.76 -174.652 -2.49981 90.2051 -11.6824 14.7953 0.865259 63.7955 2.92072 2.64027 27.4799 -0.752868 0.248283 174.136 -3.92579 89.4079 -11.5625 -8.86564 -0.785988 64.1188 -2.51008 -0.595007 23.2135 1.03017 4.89634 0.074362 8.05988 -90.0472 10.7542 0.12636 -0.105476 -0.91678 0.121595 -0.110952 -23.452 0.152217 -0.0626298 -3.43933 0.152223 -0.0626244 85.8568 -33.6052 -113.166 37.237 -12.4511 -9.28249 -3.37891 -26.9565 -25.8976 -20.5484 -1.59285 -3.09395 -91.9442 -55.1949 77.0483 -21.0164 -5.12258 -17.8462 126.751 63.0963 -124.908 15.747 -3.64568 -26.3986 6.93183 -1.79637 -5.82901 -5.94606 -0.700545 2.87687 
28.0516 102.85 -314.995 166.549 -83.0015 166.048 -174.892 -2.9189 89.7585 -11.4106 13.8979 0.969612 63.9212 2.9643 2.1555 26.4626 -1.17501 -0.244771 173.839 -3.98183 88.9367 -11.8926 -9.29388 -0.822513 64.2347 -2.5211 -0.636252 23.5678 0.925025 4.89105 0.0786265 8.08199 -89.9793 10.7099 0.166125 0.0258135 -0.96109 0.167102 0.0184658 -23.4963 0.150687 0.0745466 -3.48366 0.150687 0.0745392 85.8529 -33.9603 -113.016 37.1153 -12.6991 -9.30542 -2.68472 -26.8928 -25.0494 -21.1975 -1.61281 -3.02846 -91.8198 -54.5613 77.0819 -21.3792 -4.4768 -18.112 120.963 66.8595 -119.894 14.5652 -3.17722 -24.8928 6.8839 -1.83401 -6.48676 -5.84794 -0.627498 3.50233 
27.9843 102.847 -314.948 166.804 -83.3615 166.689 -174.67 -2.36275 90.2912 -11.8713 14.0264 0.90125 64.128 3.03481 2.29783 26.8973 -0.944116 -0.240898 174.195 -3.90625 89.4577 -11.4637 -9.19011 -0.834909 63.9411 -2.46268 -0.775839 23.8081 0.774296 5.342 0.0904718 8.04714 -90.0308 10.7797 0.165985 -0.0766218 -0.891271 0.162457 -0.0838568 -23.4265 0.181337 -0.0231921 -3.41386 0.181343 -0.0231916 85.7159 -33.8926 -113.297 36.9957 -12.6564 -9.12356 -2.1042 -26.8073 -24.3828 -21.5575 -1.53714 -3.55526 -91.7095 -54.887 77.3108 -20.8845 -3.62087 -17.3699 108.175 68.9928 -107.981 12.4242 -2.61679 -23.6147 6.80462 -1.88295 -6.2578 -5.63525 -0.714718 3.36927 
28.0024 102.828 -314.879 170.92 -83.2993 170.671 -174.739 -2.7655 90.0713 -11.6316 14.1064 0.908743 63.8236 2.97259 2.56036 27.5658 -0.76519 0.498269 174.044 -3.79691 89.214 -11.9774 -9.85205 -0.864719 64.1178 -2.50273 -0.789647 23.6793 0.880175 4.95595 0.137769 8.07446 -90.0043 10.7251 0.272408 -0.0333927 -0.945829 0.270684 -0.0453543 -23.4812 0.269855 0.0500235 -3.46857 0.269858 0.0500215 85.8901 -34.0163 -112.923 36.9825 -12.6058 -9.33722 -1.39672 -27.0035 -23.4166 -22.1294 -1.43615 -4.33805 -91.8504 -54.5391 77.0337 -21.1135 -2.96743 -17.5566 93.6989 72.0009 -94.2694 10.7082 -2.036 -21.2305 6.74297 -1.99432 -6.65309 -5.59616 -0.755371 3.58887 
28.0651 102.819 -314.845 171.962 -83.2039 171.597 -174.727 -3.03619 89.8973 -11.3707 14.1351 0.830124 63.6033 2.89644 2.69583 27.9209 -0.535371 0.328676 173.832 -3.71641 88.9693 -12.3424 -10.2911 -0.805757 64.257 -2.5999 -0.944488 23.957 0.771718 5.10308 0.137589 8.08081 -90.018 10.7123 0.265749 -0.0602464 -0.958585 0.262834 -0.0718865 -23.494 0.27156 0.0224059 -3.48131 0.271563 0.0224065 86.16 -33.6343 -112.595 37.273 -12.5479 -9.36807 -0.633986 -27.0108 -22.3415 -22.3875 -1.33493 -4.98249 -91.8711 -55.0438 77.1176 -20.7818 -2.03786 -17.6209 71.7511 73.1772 -73.1402 8.89069 -1.57123 -19.3022 6.91401 -1.92902 -5.80635 -6.08229 -0.839713 2.8745 
28.0834 102.82 -314.785 173.747 -83.2665 173.43 -174.692 -2.8285 89.9272 -11.8289 13.3165 0.810761 64.1374 3.2076 2.40552 27.2252 -0.792061 -0.151249 173.775 -3.63794 88.9599 -12.4312 -10.6858 -0.750207 64.1134 -2.58047 -1.19084 24.2915 0.672605 5.10136 0.148469 8.08233 -90.0244 10.7093 0.284461 -0.0746028 -0.961619 0.280899 -0.0870554 -23.497 0.293728 0.0143413 -3.48437 0.293732 0.0143356 86.371 -33.5 -112.265 37.5405 -12.4565 -9.51763 -0.0956906 -27.205 -21.3935 -22.7084 -1.22366 -5.74771 -91.7571 -55.2385 77.3212 -20.4423 -1.01708 -17.2898 50.9956 71.2239 -53.3284 6.37309 -0.987017 -16.0489 7.29449 -2.02249 -5.91469 -6.53707 -0.907051 3.0222 
28.1767 102.847 -314.649 175.094 -83.1687 174.549 -174.87 -3.01685 89.6082 -11.8449 12.8112 0.904121 64.1458 3.18517 2.36121 26.8905 -0.742552 -1.047 173.665 -3.65 88.6728 -12.7086 -10.7575 -0.859362 64.1447 -2.5759 -1.00832 24.3849 0.603552 5.34838 0.133926 8.10746 -90.0018 10.659 0.265936 -0.0278499 -1.0119 0.26444 -0.0395362 -23.5473 0.261999 0.0533571 -3.53462 0.262005 0.0533577 86.7177 -33.3591 -111.684 37.7298 -12.6417 -9.88077 0.414224 -27.6389 -20.5119 -23.6734 -1.17491 -6.20068 -91.7384 -54.9439 77.2825 -20.8932 -0.236765 -16.922 34.1421 67.0741 -37.1018 3.97014 -0.56824 -12.9862 7.51 -2.0708 -5.99647 -6.62643 -0.927713 2.99865 
28.3024 102.81 -314.425 175.91 -83.0536 175.203 -174.859 -3.62132 89.4046 -11.3008 13.1643 0.762518 63.959 3.23063 2.51871 27.5838 -0.680505 0.197917 173.351 -3.62934 88.2942 -13.2262 -11.4066 -0.777142 64.3864 -2.67506 -1.30582 24.8848 0.414851 5.5996 0.119853 8.12143 -89.9754 10.6311 0.250057 0.0261646 -1.03987 0.250969 0.015135 -23.5752 0.230627 0.100113 -3.56255 0.230633 0.100113 86.4944 -33.6094 -111.989 37.5441 -12.4907 -9.69091 0.845993 -27.5219 -19.8071 -24.4423 -1.09268 -6.63153 -91.7791 -55.0589 77.2506 -20.3834 1.15358 -16.536 21.7262 60.7667 -25.4668 1.80154 -0.316012 -10.5395 7.37359 -1.94671 -5.94184 -6.37255 -0.814265 2.91308 
28.4172 102.871 -314.194 175.414 -83.1802 174.912 -174.934 -3.08449 89.52 -12.2748 12.3663 0.993425 64.5841 3.29171 2.23274 26.2453 -0.816709 -2.11808 173.399 -4.28343 88.4221 -11.9826 -10.984 -0.748803 64.2524 -2.74515 -0.895171 24.3486 0.650966 5.12925 0.109395 8.11121 -89.9799 10.6514 0.227169 0.0192259 -1.01952 0.227787 0.00920539 -23.5548 0.210884 0.0866149 -3.54217 0.210879 0.0866022 86.5239 -33.8721 -111.822 37.7029 -12.2972 -9.55374 0.773682 -27.436 -19.2768 -23.7661 -1.04311 -6.88133 -91.7798 -54.389 77.1003 -20.5087 2.82015 -16.743 12.7405 54.6676 -16.9464 0.461119 -0.175503 -7.80431 7.57201 -2.15831 -6.84792 -6.72957 -0.868281 3.72875 
28.5709 102.816 -313.908 175.903 -83.0126 175.339 -174.729 -4.15857 89.4439 -11.0525 13.2859 0.687299 64.2195 3.44593 2.58088 27.614 -0.799233 0.738964 173.17 -4.20078 88.1729 -12.7773 -11.5075 -0.685121 64.3854 -2.67814 -1.26512 24.7482 0.519817 5.20566 0.092596 8.13614 -89.9815 10.6016 0.192955 0.0193547 -1.06934 0.193633 0.010838 -23.6046 0.178222 0.0764499 -3.59195 0.178222 0.0764474 86.407 -34.0107 -111.977 37.5737 -11.9415 -9.50562 1.12685 -27.223 -18.3987 -23.4194 -0.8816 -7.7751 -91.9023 -54.413 76.9319 -20.4614 4.15533 -16.1789 8.70829 48.5807 -13.4277 -1.06222 -0.101603 -5.50814 7.54377 -2.20113 -7.03994 -6.55736 -0.879126 4.03029 
28.7487 102.796 -313.666 174.238 -83.2189 173.71 -174.826 -3.79973 89.3524 -11.624 13.1418 0.754942 64.6859 3.66964 2.59327 27.0513 -0.865955 -0.221939 173.085 -4.41618 88.0868 -12.2554 -11.2924 -0.63598 64.5249 -2.83308 -1.10738 24.6385 0.593334 4.96008 0.0731907 8.11277 -90.0157 10.6483 0.138568 -0.0438857 -1.0226 0.136497 -0.0499466 -23.5578 0.145347 -0.000215494 -3.54517 0.14535 -0.000209965 86.868 -33.6966 -111.262 37.68 -12.3454 -9.93511 2.0601 -26.5435 -16.9646 -23.4382 -0.706373 -8.58179 -92.0801 -54.8023 76.7683 -20.235 5.57465 -16.7493 4.07673 43.6194 -8.69976 -1.59692 -0.0864711 -3.60791 7.17682 -2.07435 -6.28339 -5.85029 -0.881707 3.32104 
28.8935 102.748 -313.375 177.055 -83.4093 176.61 -174.747 -3.7719 89.3466 -11.801 12.8434 0.652793 64.952 3.85903 2.61968 27.2859 -0.832094 0.146026 173.095 -4.49132 88.0498 -12.128 -11.4367 -0.711192 64.7754 -2.97833 -0.780768 24.5526 0.631099 4.88629 0.0833645 8.10679 -90.0187 10.6603 0.157477 -0.0514988 -1.01061 0.155059 -0.0583971 -23.5458 0.165675 -0.00179044 -3.53319 0.165671 -0.00180417 86.6475 -33.8874 -111.588 37.4702 -12.3267 -9.53968 1.85868 -26.5672 -17.0278 -23.2504 -0.745665 -8.3597 -92.1276 -55.0188 76.7505 -19.742 7.09784 -16.1883 2.33139 38.4556 -7.56911 -2.58042 -0.0962555 -1.60891 7.3295 -2.23747 -6.53842 -5.98128 -0.991997 3.52028 
